<?xml version="1.0"?>
<svg xmlns="http://www.w3.org/2000/svg" id="Layer_5" enable-background="new 0 0 64 64" height="512px" viewBox="0 0 64 64" width="512px" class=""><g><path d="m57.618 37h-7.618v-5.792l-2.635-.62c-.333-1.16-.795-2.276-1.381-3.332l1.425-2.302-2.273-2.273 5.322-6.653c1.041.613 2.249.972 3.542.972 3.86 0 7-3.14 7-7s-3.14-7-7-7c-3.365 0-6.181 2.387-6.848 5.556l-17.18-1.108c-.283-3.602-3.299-6.448-6.972-6.448-3.86 0-7 3.14-7 7s3.14 7 7 7c3.365 0 6.181-2.387 6.848-5.556l17.18 1.108c.128 1.629.815 3.099 1.87 4.225l-5.184 6.481-1.667-1.667-2.302 1.425c-1.056-.586-2.172-1.049-3.332-1.382l-.621-2.634h-7.584l-.62 2.634c-1.16.333-2.276.795-3.332 1.382l-2.302-1.425-5.363 5.363 1.425 2.302c-.586 1.056-1.049 2.172-1.382 3.332l-2.634.62v5.792h-7.618l-5 10h4.618v16h52v-16h4.618zm-3.618-32c2.757 0 5 2.243 5 5s-2.243 5-5 5-5-2.243-5-5 2.243-5 5-5zm-31 8c-2.757 0-5-2.243-5-5s2.243-5 5-5 5 2.243 5 5-2.243 5-5 5zm36.382 32h-20.764l-3-6h20.764zm-30.835-8c-.353-.606-.547-1.287-.547-2 0-2.206 1.794-4 4-4s4 1.794 4 4c0 .714-.194 1.393-.546 2zm-6.323 0c-.133-.657-.224-1.324-.224-2 0-5.514 4.486-10 10-10s10 4.486 10 10c0 .677-.091 1.343-.224 2h-4.124c.225-.636.348-1.308.348-2 0-3.309-2.691-6-6-6s-6 2.691-6 6c0 .692.123 1.364.349 2zm-6.224-4.208 2.272-.535.146-.595c.337-1.376.882-2.689 1.619-3.904l.318-.524-1.229-1.986 3.123-3.123 1.986 1.229.524-.318c1.214-.737 2.528-1.281 3.904-1.619l.595-.146.534-2.271h4.416l.535 2.272.595.146c1.376.337 2.689.882 3.904 1.619l.524.318 1.986-1.229 3.123 3.123-1.229 1.986.318.524c.736 1.213 1.281 2.527 1.619 3.904l.146.595 2.271.534v4.208h-4.173c.11-.659.173-1.327.173-2 0-6.617-5.383-12-12-12s-12 5.383-12 12c0 .673.063 1.341.173 2h-4.173zm-8.382 6.208h22.764l-3 6h-22.764zm.382 8h20.618l3.382-6.764v20.764h-24zm48 14h-22v-20.764l3.382 6.764h18.618z" data-original="#000000" class="active-path" data-old_color="#000000" fill="#2CB79B"/><path d="m54 13c1.654 0 3-1.346 3-3s-1.346-3-3-3-3 1.346-3 3 1.346 3 3 3zm0-4c.551 0 1 .449 1 1s-.449 1-1 1-1-.449-1-1 .449-1 1-1z" data-original="#000000" class="active-path" data-old_color="#000000" fill="#2CB79B"/><path d="m23 5c-1.654 0-3 1.346-3 3s1.346 3 3 3 3-1.346 3-3-1.346-3-3-3zm0 4c-.551 0-1-.449-1-1s.449-1 1-1 1 .449 1 1-.449 1-1 1z" data-original="#000000" class="active-path" data-old_color="#000000" fill="#2CB79B"/><path d="m6 25h9v-5c0-2.757-2.243-5-5-5h-4c-2.757 0-5 2.243-5 5s2.243 5 5 5zm0-8h4c1.654 0 3 1.346 3 3v3h-7c-1.654 0-3-1.346-3-3s1.346-3 3-3z" data-original="#000000" class="active-path" data-old_color="#000000" fill="#2CB79B"/><path d="m5 19h2v2h-2z" data-original="#000000" class="active-path" data-old_color="#000000" fill="#2CB79B"/><path d="m9 19h2v2h-2z" data-original="#000000" class="active-path" data-old_color="#000000" fill="#2CB79B"/><path d="m54 19c-2.757 0-5 2.243-5 5v5h9c2.757 0 5-2.243 5-5s-2.243-5-5-5zm7 5c0 1.654-1.346 3-3 3h-7v-3c0-1.654 1.346-3 3-3h4c1.654 0 3 1.346 3 3z" data-original="#000000" class="active-path" data-old_color="#000000" fill="#2CB79B"/><path d="m57 23h2v2h-2z" data-original="#000000" class="active-path" data-old_color="#000000" fill="#2CB79B"/><path d="m53 23h2v2h-2z" data-original="#000000" class="active-path" data-old_color="#000000" fill="#2CB79B"/><path d="m10 49v10h20v-10zm18 8h-16v-6h16z" data-original="#000000" class="active-path" data-old_color="#000000" fill="#2CB79B"/><path d="m24 53h2v2h-2z" data-original="#000000" class="active-path" data-old_color="#000000" fill="#2CB79B"/><path d="m20 53h2v2h-2z" data-original="#000000" class="active-path" data-old_color="#000000" fill="#2CB79B"/><path d="m16 53h2v2h-2z" data-original="#000000" class="active-path" data-old_color="#000000" fill="#2CB79B"/><path d="m52 57h2v2h-2z" data-original="#000000" class="active-path" data-old_color="#000000" fill="#2CB79B"/><path d="m48 57h2v2h-2z" data-original="#000000" class="active-path" data-old_color="#000000" fill="#2CB79B"/><path d="m44 57h2v2h-2z" data-original="#000000" class="active-path" data-old_color="#000000" fill="#2CB79B"/><path d="m44 53h10v2h-10z" data-original="#000000" class="active-path" data-old_color="#000000" fill="#2CB79B"/></g> </svg>
